<svg width="29" height="28" viewBox="0 0 29 28" xmlns="http://www.w3.org/2000/svg"><path d="M0 13.8094C0 6.18278 6.35101 0 14.1852 0c7.8304 0 14.1814 6.18278 14.1814 13.8094 0 7.623-6.351 13.8058-14.1814 13.8058C6.35101 27.6152 0 21.4324 0 13.8094zm20.4653 6.6778c.4146 0 .6201-.4332.6201-.8405V7.76845c0-.40734-.2055-.73793-.6201-.73793H8.26386c-.41842 0-.62763.33059-.62763.73793V19.6467c0 .4073.20921.8405.62763.8405h6.47054v-5.0917h-1.8679v-2.1822h1.8679v-1.5024c0-1.72392 1.1955-2.66225 2.772-2.66225.7584 0 1.3375.05455 1.7111.08001v1.90244h-1.2217c-.8592 0-1.0199.2979-1.0199.8798v1.3024h2.0436l-.269 2.1822h-1.7746v5.0917h3.4894z" fill="#0084B4" fill-rule="evenodd"/></svg>