<svg width="29" height="28" viewBox="0 0 29 28" xmlns="http://www.w3.org/2000/svg"><path d="M0 13.8094C0 6.18278 6.35101 0 14.1852 0c7.8304 0 14.1814 6.18278 14.1814 13.8094 0 7.623-6.351 13.8058-14.1814 13.8058C6.35101 27.6152 0 21.4324 0 13.8094zm11.4317 4.8444c-2.64497 0-4.78937-2.1458-4.78937-4.7244 0-2.5786 2.1444-4.7007 4.78937-4.7007 1.2404 0 2.3723.44989 3.2204 1.2027-1.0012.9238-.9676.9707-1.3636 1.3562-.4894-.4-1.0274-.6895-1.8568-.6895-1.57277 0-2.79814 1.2431-2.79814 2.7742 0 1.5312 1.22537 2.8765 2.79814 2.8765 1.5504 0 2.1818-.6623 2.589-1.7534h-2.5329v-1.8185h4.5428c.3176 2.1822-.6463 5.4769-4.5989 5.4769zm8.6488-4.3858h1.4944v-1.0911h-1.4944v-1.4547h-1.1208v1.4547h-1.8679v1.0911h1.8679v1.8185h1.1208V14.268z" fill="#0084B4" fill-rule="evenodd"/></svg>