<svg width="29" height="28" viewBox="0 0 29 28" xmlns="http://www.w3.org/2000/svg"><path d="M14.1852 0C6.35101 0 0 6.18278 0 13.8094c0 7.623 6.35101 13.8058 14.1852 13.8058 7.8304 0 14.1814-6.1828 14.1814-13.8058C28.3666 6.18278 22.0156 0 14.1852 0zM9.1641 10.8635h-.01868c-.97507 0-1.6027-.7238-1.6027-1.52752 0-.81831.64631-1.48387 1.64006-1.48387.99002 0 1.59892.68738 1.62142 1.50569 0 .8038-.6314 1.5057-1.6401 1.5057zm1.4608.7274H8.00977v8.3649h2.61513v-8.3649zm7.4717 8.3649h3.3623v-4.5571c0-2.5676-1.6326-3.7569-3.5416-3.7569-1.5392 0-2.4358.811-2.8094 1.3784v-1.4293h-2.8916c.0374.7274 0 8.3649 0 8.3649h2.8916v-4.4334c0-.2509.0037-.4983.0822-.6765.2092-.4982.6724-1.0147 1.4719-1.0147 1.0498 0 1.4346.7638 1.4346 1.8876v4.237z" fill="#0084B4" fill-rule="evenodd"/></svg>