<svg width="12" height="12" viewBox="0 0 12 12" xmlns="http://www.w3.org/2000/svg"><path d="M8.97937 8.47184L11.8962 11.388c.1384.1384.1384.3672 0 .5056-.0692.0718-.1623.1064-.2528.1064-.0905 0-.1837-.0373-.2528-.1064L8.47372 8.97738c-.89954.78227-2.07319 1.25592-3.35596 1.25592C2.29674 10.2333 0 7.93703 0 5.11663 0 2.29623 2.29408 0 5.11776 0c2.82103 0 5.11774 2.29357 5.11774 5.11663 0 1.28248-.47369 2.45588-1.25613 3.35521zM5.11502.718407c-2.42448 0-4.3992 1.971623-4.3992 4.398223 0 2.42661 1.97472 4.40089 4.3992 4.40089 2.42715 0 4.3992-1.97694 4.3992-4.40089 0-2.42394-1.97205-4.398223-4.3992-4.398223z" fill="#787894" fill-rule="evenodd"/></svg>