<?xml version="1.0" encoding="utf-8"?>
<svg width="190px" height="129px" viewBox="0 0 190 129" version="1.1" xmlns:xlink="http://www.w3.org/1999/xlink" xmlns="http://www.w3.org/2000/svg">
  <desc>Created with Lunacy</desc>
  <g id="Nature" fill="#DB4766" transform="translate(76 31.5145)">
    <path d="M8.592 14.2047L1.968 14.2047L1.968 47.8047L6.672 47.8047L6.672 23.2767L6.768 23.2767L13.104 47.8047L18.528 47.8047L18.528 14.2047L13.824 14.2047L13.824 34.3167L13.728 34.3167L8.592 14.2047ZM33.696 14.2047L26.544 14.2047L21.072 47.8047L25.968 47.8047L26.928 41.2287L32.928 41.2287L32.928 41.1327L33.888 47.8047L39.168 47.8047L33.696 14.2047ZM45.84 19.0047L40.32 19.0047L40.32 14.2047L56.64 14.2047L56.64 19.0047L51.12 19.0047L51.12 47.8047L45.84 47.8047L45.84 19.0047ZM61.008 46.1007Q63.024 48.2847 66.864 48.2847Q70.704 48.2847 72.72 46.1007Q74.736 43.9167 74.736 39.8367L74.736 14.2047L69.648 14.2047L69.648 40.2207Q69.648 41.9487 68.952 42.7167Q68.256 43.4847 66.96 43.4847Q65.664 43.4847 64.968 42.7167Q64.272 41.9487 64.272 40.2207L64.272 14.2047L58.992 14.2047L58.992 39.8367Q58.992 43.9167 61.008 46.1007ZM78.48 14.2047L86.304 14.2047Q90.384 14.2047 92.256 16.1007Q94.128 17.9967 94.128 21.9327L94.128 23.9967Q94.128 29.2287 90.672 30.6207L90.672 30.7167Q92.592 31.2927 93.384 33.0687Q94.176 34.8447 94.176 37.8207L94.176 43.7247Q94.176 45.1647 94.272 46.0527Q94.368 46.9407 94.752 47.8047L89.376 47.8047Q89.088 46.9887 88.992 46.2687Q88.896 45.5487 88.896 43.6767L88.896 37.5327Q88.896 35.2287 88.152 34.3167Q87.408 33.4047 85.584 33.4047L83.76 33.4047L83.76 47.8047L78.48 47.8047L78.48 14.2047ZM112.224 14.2047L97.824 14.2047L97.824 47.8047L112.224 47.8047L112.224 43.0047L103.104 43.0047L103.104 32.6847L110.352 32.6847L110.352 27.8847L103.104 27.8847L103.104 19.0047L112.224 19.0047L112.224 14.2047ZM85.68 28.6047Q87.264 28.6047 88.056 27.7887Q88.848 26.9727 88.848 25.0527L88.848 22.4607Q88.848 20.6367 88.2 19.8207Q87.552 19.0047 86.16 19.0047L83.76 19.0047L83.76 28.6047L85.68 28.6047ZM29.952 20.0607L32.304 36.6687L27.552 36.6687L29.856 20.0607L29.952 20.0607Z" />
  </g>
  <g id="ILLUSTRATED" fill="#DB4766" transform="translate(0 92.5145)">
    <path d="M72.336 27.0767C72.336 20.1647 62.016 18.8687 62.016 9.26869C62.016 3.89268 64.656 0.820686 69.792 0.820686C74.928 0.820686 77.568 3.89268 77.568 9.26869L77.568 10.3247L72.576 10.3247L72.576 8.93269C72.576 6.53268 71.616 5.62069 69.936 5.62069C68.256 5.62069 67.296 6.53268 67.296 8.93269C67.296 15.8447 77.616 17.1407 77.616 26.7407C77.616 32.1167 74.928 35.1887 69.744 35.1887C64.56 35.1887 61.872 32.1167 61.872 26.7407L61.872 24.6767L66.864 24.6767L66.864 27.0767C66.864 29.4767 67.92 30.3407 69.6 30.3407C71.28 30.3407 72.336 29.4767 72.336 27.0767ZM1.92 34.8047L7.2 34.8047L7.2 1.20469L1.92 1.20469L1.92 34.8047ZM11.04 34.8047L25.008 34.8047L25.008 30.0047L16.32 30.0047L16.32 1.20469L11.04 1.20469L11.04 34.8047ZM41.28 34.8047L27.312 34.8047L27.312 1.20469L32.592 1.20469L32.592 30.0047L41.28 30.0047L41.28 34.8047ZM43.344 1.20469L43.344 26.7887C43.344 32.1647 46.032 35.2367 51.216 35.2367C56.4 35.2367 59.088 32.1647 59.088 26.7887L59.088 1.20469L54.096 1.20469L54.096 27.1247C54.096 29.5247 53.04 30.3887 51.36 30.3887C49.68 30.3887 48.624 29.5247 48.624 27.1247L48.624 1.20469L43.344 1.20469ZM79.104 6.00469L84.624 6.00469L84.624 34.8047L89.904 34.8047L89.904 6.00469L95.424 6.00469L95.424 1.20469L79.104 1.20469L79.104 6.00469ZM113.568 30.7247C113.568 32.3567 113.616 33.5567 114.144 34.8047L108.768 34.8047C108.48 33.9407 108.288 33.4127 108.288 30.6767L108.288 25.3967C108.288 22.2767 107.232 21.1247 104.832 21.1247L103.008 21.1247L103.008 34.8047L97.728 34.8047L97.728 1.20469L105.696 1.20469C111.168 1.20469 113.52 3.74869 113.52 8.93269L113.52 11.5727C113.52 15.0287 112.416 17.2847 110.064 18.3887C112.704 19.4927 113.568 22.0367 113.568 25.5407L113.568 30.7247ZM128.736 1.20469L121.008 1.20469L115.632 34.8047L120.48 34.8047L121.392 28.7087L127.872 28.7087L128.784 34.8047L134.112 34.8047L128.736 1.20469ZM140.544 6.00469L135.024 6.00469L135.024 1.20469L151.344 1.20469L151.344 6.00469L145.824 6.00469L145.824 34.8047L140.544 34.8047L140.544 6.00469ZM158.928 6.00469L168.048 6.00469L168.048 1.20469L153.648 1.20469L153.648 34.8047L168.048 34.8047L168.048 30.0047L158.928 30.0047L158.928 20.1647L166.176 20.1647L166.176 15.3647L158.928 15.3647L158.928 6.00469ZM179.664 34.8047L171.312 34.8047L171.312 1.20469L179.664 1.20469C184.944 1.20469 187.536 4.13268 187.536 9.50869L187.536 26.5007C187.536 31.8767 184.944 34.8047 179.664 34.8047ZM108.24 9.46069C108.24 7.06069 107.424 6.00469 105.552 6.00469L103.008 6.00469L103.008 16.3247L105.072 16.3247C107.04 16.3247 108.24 15.4607 108.24 12.7727L108.24 9.46069ZM182.256 9.26869C182.256 6.86869 181.248 6.00469 179.568 6.00469L176.592 6.00469L176.592 30.0047L179.568 30.0047C181.248 30.0047 182.256 29.1407 182.256 26.7407L182.256 9.26869ZM124.608 7.15668L127.152 24.1487L122.064 24.1487L124.608 7.15668Z" />
  </g>
  <g id="planet-earth">
    <path d="M52.8651 26.5026C52.8651 11.8655 41.031 0 26.4326 0C11.8342 0 0 11.8655 0 26.5026C0 41.1398 11.8342 53.0053 26.4326 53.0053C41.031 53.0053 52.8651 41.1398 52.8651 26.5026L52.8651 26.5026Z" transform="translate(7.399384 19.79388)" id="Shape" fill="#89C8FD" stroke="none" />
    <path d="M3.99121 0C2.63459 0 1.30132 0.102607 0 0.300447C12.7042 2.2297 22.4407 13.2258 22.4407 26.5026C22.4407 39.7795 12.7042 50.7756 0 52.7048C1.30132 52.9027 2.63459 53.0053 3.99121 53.0053C18.5896 53.0053 30.4238 41.1398 30.4238 26.5026C30.4238 11.8655 18.5896 0 3.99121 0L3.99121 0Z" transform="translate(29.84076 19.79388)" id="Shape" fill="#60B6FF" stroke="none" />
    <g id="Group" transform="translate(7.399376 19.84735)">
      <path d="M5.62095 10.2465C1.54925 12.7982 -1.50499 16.8803 0.785539 21.4737C3.07606 26.0664 8.16584 24.2803 12.8741 23.6425C17.5823 23.0048 14.0193 37.5491 16.8186 41.1213C19.6179 44.6935 27.5069 37.5491 26.7438 32.9558C25.6133 26.1555 25.217 23.7697 34.3785 18.922L34.403 18.9128C31.315 8.45614 21.9674 0.697357 10.712 0L10.7107 0.0399367C10.7107 0.0399367 9.69266 7.69489 5.62095 10.2465L5.62095 10.2465Z" transform="translate(18.16141 0)" id="Shape" fill="#BAEB6C" stroke="none" />
      <path d="M0 0C0.0524343 0.0449306 0.104869 0.112326 0.157303 0.157257C0.104869 0.112326 0.0524343 0.0673959 0 0L0 0Z" transform="translate(42.99347 5.79451)" id="Shape" fill="#BAEB6C" stroke="none" />
      <path d="M0 0C0 0.0786405 0.0786419 0.157281 0.157284 0.157281C0.0786419 0.0786405 0.0786419 0.0786405 0 0L0 0Z" transform="translate(46.22589 8.88623)" id="Shape" fill="#BAEB6C" stroke="none" />
      <path d="M8.87272 21.2273C7.65004 19.3626 11.0361 14.9763 11.7992 11.6591C12.5629 8.34186 7.98182 8.59684 6.58219 7.44851C5.18256 6.30017 3.27358 1.32467 1.87396 0.176336L1.65031 0C0.583691 2.87544 0 5.98682 0 9.2346C0 17.9949 4.23944 25.761 10.7731 30.586L10.7811 30.0306C10.7811 30.0306 11.7992 25.6928 8.87272 21.2273L8.87272 21.2273Z" transform="translate(0 17.21458)" id="Shape" fill="#BAEB6C" stroke="none" />
      <path d="M2.21247 0.0989199C2.20694 0.0657418 2.20141 0.0331781 2.19588 0C1.69022 2.04291 0.948025 3.99243 0 5.81723C1.50345 4.04281 2.508 1.87948 2.21247 0.0989199L2.21247 0.0989199Z" transform="translate(41.90719 32.85687)" id="Shape" fill="#BAEB6C" stroke="none" />
    </g>
    <path d="M0.304749 0L0.30352 0.0399367C0.30352 0.0399367 0.218731 0.678924 0 1.64785C9.26904 5.15614 16.0552 13.737 16.9891 24.0149C18.1571 22.4174 20.2935 20.8679 23.9713 18.922L23.9959 18.9128C20.9079 8.45614 11.5602 0.697357 0.304749 0L0.304749 0Z" transform="translate(35.18243 19.84735)" id="Shape" fill="#96D629" stroke="none" />
    <path d="M34.2615 67.924C32.3894 67.924 30.5038 67.7704 28.6194 67.4589C19.6115 65.9714 11.7218 61.0653 6.40408 53.6444C1.08635 46.2236 -1.02292 37.1757 0.465181 28.1685C0.572703 27.516 1.1908 27.0748 1.84146 27.1823C2.49397 27.2899 2.93573 27.9061 2.82759 28.5586C1.44455 36.9349 3.40576 45.3487 8.35115 52.2497C13.2966 59.1508 20.6326 63.7128 29.0101 65.0965C46.304 67.9535 62.694 56.2078 65.5504 38.9164C66.9335 30.5401 64.9723 22.1263 60.0269 15.2253C55.0821 8.32421 47.7454 3.7622 39.3685 2.37855C38.716 2.27103 38.2742 1.65477 38.3817 1.00227C38.4899 0.349761 39.1074 -0.0913865 39.758 0.0161355C48.7665 1.50363 56.6562 6.4097 61.9733 13.8306C67.291 21.2514 69.4003 30.2992 67.9128 39.3065C66.4253 48.3138 61.5186 56.2028 54.0972 61.52C48.2277 65.725 41.3414 67.924 34.2615 67.924L34.2615 67.924Z" transform="translate(0 12.59052)" id="Shape" fill="#09A66D" stroke="none" />
    <path d="M20.7118 28.9234C7.9296 26.7545 0 10.6606 0 10.6606C0 10.6606 12.7951 -1.91699 25.5774 0.251267C38.3596 2.41953 46.2892 18.5134 46.2892 18.5134C46.2892 18.5134 33.4941 31.0917 20.7118 28.9234L20.7118 28.9234Z" transform="translate(5.814777 0.2174759)" id="Shape" fill="#49CB5C" stroke="none" />
    <path d="M7.23409 0.250912C4.79303 -0.163202 2.35258 -0.0384763 0 0.432778C12.2483 3.18289 19.8037 18.5131 19.8037 18.5131C19.8037 18.5131 11.4281 26.7456 1.45984 28.7412C1.76029 28.8088 2.06258 28.8708 2.36856 28.9231C15.1508 31.0913 27.9459 18.5131 27.9459 18.5131C27.9459 18.5131 20.0163 2.41917 7.23409 0.250912L7.23409 0.250912Z" transform="translate(24.15807 0.2174759)" id="Shape" fill="#07B128" stroke="none" />
    <path d="M45.5666 17.1433L33.0664 15.0347L21.3901 0C20.4587 0.0546826 19.5358 0.173878 18.6253 0.344685L29.5766 14.4454L20.1509 12.8553L12.1082 2.44966C11.3537 2.79004 10.6201 3.15132 9.91292 3.52611L16.6696 12.268L1.08382 9.63828C0.384007 10.2496 0 10.6269 0 10.6269C0 10.6269 0.256824 11.1473 0.749583 12.0105L16.2506 14.6255L7.65373 21.2728C8.20731 21.843 8.78793 22.4064 9.39497 22.9532L19.464 15.168L29.4426 16.8515L15.8715 27.3512C16.7138 27.7444 17.5845 28.0848 18.4821 28.3588L32.656 17.394L45.1642 19.5039C45.8892 18.8717 46.2892 18.4797 46.2892 18.4797C46.2892 18.4797 46.0416 17.9783 45.5666 17.1433L45.5666 17.1433Z" transform="translate(5.814777 0)" id="Shape" fill="#09A66D" stroke="none" />
    <path d="M1.01933 10.8456C4.44836 2.73167 16.3292 0 16.3292 0C16.3292 0 22.6509 10.4235 19.2219 18.5374C15.7935 26.6513 3.91198 29.383 3.91198 29.383C3.91198 29.383 -2.4097 18.9595 1.01933 10.8456L1.01933 10.8456Z" transform="translate(60.79789 2.422012)" id="Shape" fill="#49CB5C" stroke="none" />
    <path d="M13.5409 0C13.5409 0 10.8394 0.621784 7.64078 2.15167C9.28186 5.62801 11.8833 12.6833 9.40904 18.5374C7.61559 22.7818 3.50888 25.5534 0 27.2313C0.633455 28.5732 1.12437 29.383 1.12437 29.383C1.12437 29.383 13.0052 26.6513 16.4342 18.5374C19.8626 10.4235 13.5409 0 13.5409 0L13.5409 0Z" transform="translate(62.56681 2.422012)" id="Shape" fill="#07B128" stroke="none" />
    <path d="M17.2158 11.8452L8.07949 15.6779L14.078 1.33696C13.6485 0.489071 13.3517 0 13.3517 0C13.3517 0 12.7865 0.130255 11.8667 0.4178L5.66731 15.2386L1.82295 5.77977C1.17168 6.35424 0.55727 6.97848 0 7.65495L4.35616 18.3734L0.264196 28.156C0.663562 28.9357 0.934517 29.383 0.934517 29.383C0.934517 29.383 1.54893 29.2417 2.5369 28.9283L6.76219 18.8274L17.2121 14.4442C17.2815 13.576 17.2778 12.7054 17.2158 11.8452L17.2158 11.8452Z" transform="translate(62.75605 2.422012)" id="Shape" fill="#09A66D" stroke="none" />
  </g>
</svg>