<svg width="29" height="28" viewBox="0 0 29 28" xmlns="http://www.w3.org/2000/svg"><path d="M0 13.8094C0 6.18276 6.35101 0 14.1852 0c7.8304 0 14.1814 6.18276 14.1814 13.8094 0 7.623-6.351 13.8057-14.1814 13.8057C6.35101 27.6151 0 21.4324 0 13.8094zm19.5836-2.5568c0-.1236-.0037-.2473-.0074-.3709.5603-.4037 1.0497-.90926 1.4308-1.48389-.5118.22913-1.0647.38188-1.6475.45098.594-.35278 1.0501-.91651 1.2631-1.5857-.5567.33096-1.1693.56736-1.8231.69465-.5231-.55645-1.2695-.90195-2.0951-.90195-1.5844 0-2.8684 1.28383-2.8684 2.86591 0 .2218.0243.44.0766.651-2.3873-.12-4.49805-1.2584-5.91395-2.9932-.24657.42188-.38106.91651-.38106 1.4402 0 .9929.51929 1.873 1.29262 2.3858-.47072-.0145-.90035-.1454-1.27394-.3564v.0328c0 1.3893.96012 2.5494 2.27515 2.8113-.23909.0655-.52302.1018-.78827.1018-.18306 0-.36238-.0182-.53796-.0509.36611 1.1384 1.42341 1.9639 2.68241 1.9894-.9826.7674-2.2229 1.2256-3.56782 1.2256-.23162 0-.45951-.0145-.68367-.04 1.2702.8111 2.7795 1.2875 4.40089 1.2875 5.2788 0 8.1666-4.3679 8.1666-8.154z" fill="#0084B4" fill-rule="evenodd"/></svg>